<svg xmlns="http://www.w3.org/2000/svg" width="1180" height="700" viewBox="0 0 1180 700">
<rect width="100%" height="100%" fill="white"/>
<text x="590.0" y="30.0" font-size="18" text-anchor="middle" font-family="Arial, sans-serif">Montage 30GB: selected runtime and choice stability</text>
<line x1="90" y1="470" x2="1140" y2="470" stroke="#222"/>
<line x1="90" y1="60" x2="90" y2="470" stroke="#222"/>
<text transform="rotate(-90 18 265.0)" x="18.0" y="265.0" font-size="12" text-anchor="middle" font-family="Arial, sans-serif">Runtime s</text>
<line x1="86" y1="470.0" x2="1140" y2="470.0" stroke="#e5e7eb"/>
<text x="82.0" y="474.0" font-size="11" text-anchor="end" font-family="Arial, sans-serif">0</text>
<line x1="86" y1="388.0" x2="1140" y2="388.0" stroke="#e5e7eb"/>
<text x="82.0" y="392.0" font-size="11" text-anchor="end" font-family="Arial, sans-serif">4</text>
<line x1="86" y1="306.0" x2="1140" y2="306.0" stroke="#e5e7eb"/>
<text x="82.0" y="310.0" font-size="11" text-anchor="end" font-family="Arial, sans-serif">8</text>
<line x1="86" y1="224.0" x2="1140" y2="224.0" stroke="#e5e7eb"/>
<text x="82.0" y="228.0" font-size="11" text-anchor="end" font-family="Arial, sans-serif">12</text>
<line x1="86" y1="142.0" x2="1140" y2="142.0" stroke="#e5e7eb"/>
<text x="82.0" y="146.0" font-size="11" text-anchor="end" font-family="Arial, sans-serif">15</text>
<line x1="86" y1="60.0" x2="1140" y2="60.0" stroke="#e5e7eb"/>
<text x="82.0" y="64.0" font-size="11" text-anchor="end" font-family="Arial, sans-serif">19</text>
<rect x="173.8" y="142.0" width="95.0" height="328.0" fill="#6b7280"/>
<text x="221.2" y="120.0" font-size="11" text-anchor="middle" font-family="Arial, sans-serif">15.3s</text>
<text x="221.2" y="135.0" font-size="11" text-anchor="middle" font-family="Arial, sans-serif">stability 67%</text>
<text x="221.2" y="492.0" font-size="11" text-anchor="middle" font-family="Arial, sans-serif">baseline best BeeGFS</text>
<text x="221.2" y="512.0" font-size="10" text-anchor="middle" font-family="Arial, sans-serif">best choices: 30/beegfs x2;</text>
<text x="221.2" y="526.0" font-size="10" text-anchor="middle" font-family="Arial, sans-serif">60/beegfs x1; all baselines:</text>
<text x="221.2" y="540.0" font-size="10" text-anchor="middle" font-family="Arial, sans-serif">30node mean 24.0s, 60node mean</text>
<text x="221.2" y="554.0" font-size="10" text-anchor="middle" font-family="Arial, sans-serif">19.0s, 120node mean 49.0s</text>
<rect x="436.2" y="413.0" width="95.0" height="57.0" fill="#4c78a8"/>
<text x="483.8" y="391.0" font-size="11" text-anchor="middle" font-family="Arial, sans-serif">2.7s</text>
<text x="483.8" y="406.0" font-size="11" text-anchor="middle" font-family="Arial, sans-serif">stability 67%</text>
<text x="483.8" y="492.0" font-size="11" text-anchor="middle" font-family="Arial, sans-serif">code only</text>
<text x="483.8" y="512.0" font-size="10" text-anchor="middle" font-family="Arial, sans-serif">chosen: 120/tmpfs x2; 120/scratch</text>
<text x="483.8" y="526.0" font-size="10" text-anchor="middle" font-family="Arial, sans-serif">x1</text>
<rect x="698.8" y="405.8" width="95.0" height="64.2" fill="#f58518"/>
<text x="746.2" y="383.8" font-size="11" text-anchor="middle" font-family="Arial, sans-serif">3.0s</text>
<text x="746.2" y="398.8" font-size="11" text-anchor="middle" font-family="Arial, sans-serif">stability 67%</text>
<text x="746.2" y="492.0" font-size="11" text-anchor="middle" font-family="Arial, sans-serif">wdd only</text>
<text x="746.2" y="512.0" font-size="10" text-anchor="middle" font-family="Arial, sans-serif">chosen: 120/tmpfs x2; 120/scratch</text>
<text x="746.2" y="526.0" font-size="10" text-anchor="middle" font-family="Arial, sans-serif">x1</text>
<rect x="961.2" y="405.8" width="95.0" height="64.2" fill="#54a24b"/>
<text x="1008.8" y="383.8" font-size="11" text-anchor="middle" font-family="Arial, sans-serif">3.0s</text>
<text x="1008.8" y="398.8" font-size="11" text-anchor="middle" font-family="Arial, sans-serif">stability 100%</text>
<text x="1008.8" y="492.0" font-size="11" text-anchor="middle" font-family="Arial, sans-serif">wdd dpm</text>
<text x="1008.8" y="512.0" font-size="10" text-anchor="middle" font-family="Arial, sans-serif">chosen: 120/tmpfs x3</text>
</svg>
